<mxfile host="app.diagrams.net" modified="2023-08-08T10:02:00.698Z" agent="Mozilla/5.0 (X11; Linux x86_64; rv:109.0) Gecko/20100101 Firefox/116.0" etag="Ne3ZwNRTF5p938wH_Fox" version="21.6.6" type="device">
  <diagram name="Page-1" id="X_vAhEobibYKAb2OuPaL">
    <mxGraphModel dx="1795" dy="1008" grid="0" gridSize="10" guides="1" tooltips="1" connect="1" arrows="1" fold="1" page="1" pageScale="1" pageWidth="850" pageHeight="1100" background="#ffffff" math="0" shadow="0">
      <root>
        <mxCell id="0" />
        <mxCell id="1" parent="0" />
        <mxCell id="mm0BRypHBkKsyXytVfc6-4" value="" style="edgeStyle=orthogonalEdgeStyle;rounded=1;orthogonalLoop=1;jettySize=auto;html=1;" edge="1" parent="1" source="mm0BRypHBkKsyXytVfc6-2" target="mm0BRypHBkKsyXytVfc6-3">
          <mxGeometry relative="1" as="geometry" />
        </mxCell>
        <mxCell id="mm0BRypHBkKsyXytVfc6-2" value="start" style="ellipse;whiteSpace=wrap;html=1;labelBackgroundColor=none;rounded=1;fontSize=24;" vertex="1" parent="1">
          <mxGeometry x="82" y="33" width="120" height="80" as="geometry" />
        </mxCell>
        <mxCell id="mm0BRypHBkKsyXytVfc6-17" value="" style="edgeStyle=orthogonalEdgeStyle;rounded=1;orthogonalLoop=1;jettySize=auto;html=1;" edge="1" parent="1" source="mm0BRypHBkKsyXytVfc6-3" target="mm0BRypHBkKsyXytVfc6-16">
          <mxGeometry relative="1" as="geometry" />
        </mxCell>
        <mxCell id="mm0BRypHBkKsyXytVfc6-3" value="Declare variable n1, n2, gcd&amp;nbsp; 1, i= 1" style="whiteSpace=wrap;html=1;fontSize=24;labelBackgroundColor=none;rounded=1;" vertex="1" parent="1">
          <mxGeometry x="20" y="161" width="244" height="144" as="geometry" />
        </mxCell>
        <mxCell id="mm0BRypHBkKsyXytVfc6-19" value="" style="edgeStyle=orthogonalEdgeStyle;rounded=1;orthogonalLoop=1;jettySize=auto;html=1;" edge="1" parent="1" source="mm0BRypHBkKsyXytVfc6-16" target="mm0BRypHBkKsyXytVfc6-18">
          <mxGeometry relative="1" as="geometry" />
        </mxCell>
        <mxCell id="mm0BRypHBkKsyXytVfc6-16" value="input n1 and n2" style="whiteSpace=wrap;html=1;fontSize=24;labelBackgroundColor=none;rounded=1;shape=parallelogram;perimeter=parallelogramPerimeter;fixedSize=1;" vertex="1" parent="1">
          <mxGeometry x="17" y="341" width="250" height="84" as="geometry" />
        </mxCell>
        <mxCell id="mm0BRypHBkKsyXytVfc6-21" value="" style="edgeStyle=orthogonalEdgeStyle;rounded=1;orthogonalLoop=1;jettySize=auto;html=1;" edge="1" parent="1" source="mm0BRypHBkKsyXytVfc6-18" target="mm0BRypHBkKsyXytVfc6-20">
          <mxGeometry relative="1" as="geometry" />
        </mxCell>
        <mxCell id="mm0BRypHBkKsyXytVfc6-31" value="yes" style="edgeLabel;html=1;align=center;verticalAlign=middle;resizable=0;points=[];fontSize=22;rounded=1;" vertex="1" connectable="0" parent="mm0BRypHBkKsyXytVfc6-21">
          <mxGeometry x="-0.1275" y="1" relative="1" as="geometry">
            <mxPoint as="offset" />
          </mxGeometry>
        </mxCell>
        <mxCell id="mm0BRypHBkKsyXytVfc6-30" style="edgeStyle=orthogonalEdgeStyle;rounded=1;orthogonalLoop=1;jettySize=auto;html=1;exitX=0.5;exitY=1;exitDx=0;exitDy=0;entryX=0.5;entryY=0;entryDx=0;entryDy=0;" edge="1" parent="1" source="mm0BRypHBkKsyXytVfc6-18" target="mm0BRypHBkKsyXytVfc6-26">
          <mxGeometry relative="1" as="geometry" />
        </mxCell>
        <mxCell id="mm0BRypHBkKsyXytVfc6-32" value="no" style="edgeLabel;html=1;align=center;verticalAlign=middle;resizable=0;points=[];fontSize=24;rounded=1;" vertex="1" connectable="0" parent="mm0BRypHBkKsyXytVfc6-30">
          <mxGeometry x="0.0276" y="3" relative="1" as="geometry">
            <mxPoint as="offset" />
          </mxGeometry>
        </mxCell>
        <mxCell id="mm0BRypHBkKsyXytVfc6-18" value="&lt;div&gt;i&amp;lt;=n1 and&lt;/div&gt;&lt;div&gt;i&amp;lt;=n2&lt;br&gt;&lt;/div&gt;" style="rhombus;whiteSpace=wrap;html=1;fontSize=24;labelBackgroundColor=none;rounded=1;" vertex="1" parent="1">
          <mxGeometry x="52" y="482" width="180" height="130" as="geometry" />
        </mxCell>
        <mxCell id="mm0BRypHBkKsyXytVfc6-23" value="" style="edgeStyle=orthogonalEdgeStyle;rounded=1;orthogonalLoop=1;jettySize=auto;html=1;" edge="1" parent="1" source="mm0BRypHBkKsyXytVfc6-20" target="mm0BRypHBkKsyXytVfc6-22">
          <mxGeometry relative="1" as="geometry" />
        </mxCell>
        <mxCell id="mm0BRypHBkKsyXytVfc6-35" value="yes" style="edgeLabel;html=1;align=center;verticalAlign=middle;resizable=0;points=[];fontSize=24;rounded=1;" vertex="1" connectable="0" parent="mm0BRypHBkKsyXytVfc6-23">
          <mxGeometry x="0.1117" y="-2" relative="1" as="geometry">
            <mxPoint as="offset" />
          </mxGeometry>
        </mxCell>
        <mxCell id="mm0BRypHBkKsyXytVfc6-25" value="" style="edgeStyle=orthogonalEdgeStyle;rounded=1;orthogonalLoop=1;jettySize=auto;html=1;" edge="1" parent="1" source="mm0BRypHBkKsyXytVfc6-20" target="mm0BRypHBkKsyXytVfc6-24">
          <mxGeometry relative="1" as="geometry" />
        </mxCell>
        <mxCell id="mm0BRypHBkKsyXytVfc6-34" value="no" style="edgeLabel;html=1;align=center;verticalAlign=middle;resizable=0;points=[];fontSize=24;rounded=1;" vertex="1" connectable="0" parent="mm0BRypHBkKsyXytVfc6-25">
          <mxGeometry x="-0.0261" y="1" relative="1" as="geometry">
            <mxPoint as="offset" />
          </mxGeometry>
        </mxCell>
        <mxCell id="mm0BRypHBkKsyXytVfc6-20" value="&lt;div&gt;i&amp;lt;=n1 and&lt;/div&gt;&lt;div&gt;i&amp;lt;=n2&lt;br&gt;&lt;/div&gt;" style="rhombus;whiteSpace=wrap;html=1;fontSize=24;labelBackgroundColor=none;rounded=1;" vertex="1" parent="1">
          <mxGeometry x="337" y="650" width="180" height="130" as="geometry" />
        </mxCell>
        <mxCell id="mm0BRypHBkKsyXytVfc6-33" style="edgeStyle=orthogonalEdgeStyle;rounded=1;orthogonalLoop=1;jettySize=auto;html=1;exitX=0.5;exitY=1;exitDx=0;exitDy=0;entryX=1;entryY=0.5;entryDx=0;entryDy=0;" edge="1" parent="1" source="mm0BRypHBkKsyXytVfc6-22" target="mm0BRypHBkKsyXytVfc6-24">
          <mxGeometry relative="1" as="geometry" />
        </mxCell>
        <mxCell id="mm0BRypHBkKsyXytVfc6-22" value="gcd = 1" style="whiteSpace=wrap;html=1;fontSize=24;labelBackgroundColor=none;rounded=1;" vertex="1" parent="1">
          <mxGeometry x="627" y="685" width="120" height="60" as="geometry" />
        </mxCell>
        <mxCell id="mm0BRypHBkKsyXytVfc6-27" value="" style="edgeStyle=orthogonalEdgeStyle;rounded=1;orthogonalLoop=1;jettySize=auto;html=1;" edge="1" parent="1" source="mm0BRypHBkKsyXytVfc6-24" target="mm0BRypHBkKsyXytVfc6-26">
          <mxGeometry relative="1" as="geometry" />
        </mxCell>
        <mxCell id="mm0BRypHBkKsyXytVfc6-24" value="i = i + 1" style="whiteSpace=wrap;html=1;fontSize=24;labelBackgroundColor=none;rounded=1;" vertex="1" parent="1">
          <mxGeometry x="367" y="895" width="120" height="60" as="geometry" />
        </mxCell>
        <mxCell id="mm0BRypHBkKsyXytVfc6-29" value="" style="edgeStyle=orthogonalEdgeStyle;rounded=1;orthogonalLoop=1;jettySize=auto;html=1;" edge="1" parent="1" source="mm0BRypHBkKsyXytVfc6-26" target="mm0BRypHBkKsyXytVfc6-28">
          <mxGeometry relative="1" as="geometry" />
        </mxCell>
        <mxCell id="mm0BRypHBkKsyXytVfc6-26" value="print gcd" style="whiteSpace=wrap;html=1;fontSize=24;labelBackgroundColor=none;rounded=1;" vertex="1" parent="1">
          <mxGeometry x="82" y="895" width="120" height="60" as="geometry" />
        </mxCell>
        <mxCell id="mm0BRypHBkKsyXytVfc6-28" value="End" style="ellipse;whiteSpace=wrap;html=1;fontSize=24;labelBackgroundColor=none;rounded=1;" vertex="1" parent="1">
          <mxGeometry x="102" y="989" width="80" height="80" as="geometry" />
        </mxCell>
      </root>
    </mxGraphModel>
  </diagram>
</mxfile>
